<mxfile host="app.diagrams.net" agent="Mozilla/5.0 (Windows NT 10.0; Win64; x64; rv:133.0) Gecko/20100101 Firefox/133.0" version="25.0.3">
  <diagram name="Page-1" id="O6QmdNGTwW9C2vk0QqGS">
    <mxGraphModel dx="1562" dy="779" grid="1" gridSize="10" guides="1" tooltips="1" connect="1" arrows="1" fold="1" page="1" pageScale="1" pageWidth="827" pageHeight="1169" math="0" shadow="0">
      <root>
        <mxCell id="0" />
        <mxCell id="1" parent="0" />
        <mxCell id="k7s3DN2pCvagnc5NMCIo-14" style="rounded=0;orthogonalLoop=1;jettySize=auto;html=1;exitX=1;exitY=0.3333333333333333;exitDx=0;exitDy=0;exitPerimeter=0;entryX=0.5;entryY=1;entryDx=0;entryDy=0;" parent="1" source="k7s3DN2pCvagnc5NMCIo-1" target="k7s3DN2pCvagnc5NMCIo-6" edge="1">
          <mxGeometry relative="1" as="geometry" />
        </mxCell>
        <mxCell id="k7s3DN2pCvagnc5NMCIo-16" style="rounded=0;orthogonalLoop=1;jettySize=auto;html=1;exitX=0;exitY=0.3333333333333333;exitDx=0;exitDy=0;exitPerimeter=0;entryX=0.5;entryY=1;entryDx=0;entryDy=0;" parent="1" source="k7s3DN2pCvagnc5NMCIo-1" target="k7s3DN2pCvagnc5NMCIo-2" edge="1">
          <mxGeometry relative="1" as="geometry" />
        </mxCell>
        <mxCell id="k7s3DN2pCvagnc5NMCIo-24" style="rounded=0;orthogonalLoop=1;jettySize=auto;html=1;exitX=0;exitY=0.3333333333333333;exitDx=0;exitDy=0;exitPerimeter=0;entryX=0.5;entryY=0;entryDx=0;entryDy=0;" parent="1" source="k7s3DN2pCvagnc5NMCIo-1" target="k7s3DN2pCvagnc5NMCIo-21" edge="1">
          <mxGeometry relative="1" as="geometry" />
        </mxCell>
        <mxCell id="k7s3DN2pCvagnc5NMCIo-1" value="Пользователь" style="shape=umlActor;verticalLabelPosition=bottom;verticalAlign=top;html=1;outlineConnect=0;fillColor=#f5f5f5;fontColor=#333333;strokeColor=#666666;" parent="1" vertex="1">
          <mxGeometry x="330" y="259" width="30" height="60" as="geometry" />
        </mxCell>
        <mxCell id="k7s3DN2pCvagnc5NMCIo-17" style="rounded=0;orthogonalLoop=1;jettySize=auto;html=1;exitX=0;exitY=1;exitDx=0;exitDy=0;entryX=1;entryY=0.5;entryDx=0;entryDy=0;dashed=1;" parent="1" source="k7s3DN2pCvagnc5NMCIo-2" target="k7s3DN2pCvagnc5NMCIo-3" edge="1">
          <mxGeometry relative="1" as="geometry" />
        </mxCell>
        <mxCell id="k7s3DN2pCvagnc5NMCIo-19" style="rounded=0;orthogonalLoop=1;jettySize=auto;html=1;exitX=0.5;exitY=0;exitDx=0;exitDy=0;entryX=0.5;entryY=1;entryDx=0;entryDy=0;dashed=1;" parent="1" source="k7s3DN2pCvagnc5NMCIo-2" target="k7s3DN2pCvagnc5NMCIo-4" edge="1">
          <mxGeometry relative="1" as="geometry" />
        </mxCell>
        <mxCell id="k7s3DN2pCvagnc5NMCIo-20" style="rounded=0;orthogonalLoop=1;jettySize=auto;html=1;exitX=0;exitY=0;exitDx=0;exitDy=0;entryX=0.5;entryY=1;entryDx=0;entryDy=0;dashed=1;" parent="1" source="k7s3DN2pCvagnc5NMCIo-2" target="k7s3DN2pCvagnc5NMCIo-5" edge="1">
          <mxGeometry relative="1" as="geometry" />
        </mxCell>
        <mxCell id="k7s3DN2pCvagnc5NMCIo-2" value="&lt;div&gt;Работа с&lt;/div&gt;&lt;div&gt;картинками&lt;/div&gt;" style="ellipse;whiteSpace=wrap;html=1;" parent="1" vertex="1">
          <mxGeometry x="172" y="160" width="120" height="80" as="geometry" />
        </mxCell>
        <mxCell id="k7s3DN2pCvagnc5NMCIo-3" value="Создание" style="ellipse;whiteSpace=wrap;html=1;" parent="1" vertex="1">
          <mxGeometry x="30" y="249" width="120" height="80" as="geometry" />
        </mxCell>
        <mxCell id="k7s3DN2pCvagnc5NMCIo-4" value="Жалобы" style="ellipse;whiteSpace=wrap;html=1;" parent="1" vertex="1">
          <mxGeometry x="202" y="30" width="120" height="80" as="geometry" />
        </mxCell>
        <mxCell id="k7s3DN2pCvagnc5NMCIo-5" value="Редактирование" style="ellipse;whiteSpace=wrap;html=1;" parent="1" vertex="1">
          <mxGeometry x="30" y="30" width="120" height="80" as="geometry" />
        </mxCell>
        <mxCell id="k7s3DN2pCvagnc5NMCIo-10" style="rounded=0;orthogonalLoop=1;jettySize=auto;html=1;entryX=0;entryY=0;entryDx=0;entryDy=0;dashed=1;" parent="1" source="k7s3DN2pCvagnc5NMCIo-6" target="k7s3DN2pCvagnc5NMCIo-8" edge="1">
          <mxGeometry relative="1" as="geometry" />
        </mxCell>
        <mxCell id="k7s3DN2pCvagnc5NMCIo-11" style="rounded=0;orthogonalLoop=1;jettySize=auto;html=1;exitX=1;exitY=0;exitDx=0;exitDy=0;entryX=0;entryY=1;entryDx=0;entryDy=0;dashed=1;" parent="1" source="k7s3DN2pCvagnc5NMCIo-6" target="k7s3DN2pCvagnc5NMCIo-9" edge="1">
          <mxGeometry relative="1" as="geometry" />
        </mxCell>
        <mxCell id="k7s3DN2pCvagnc5NMCIo-12" style="rounded=0;orthogonalLoop=1;jettySize=auto;html=1;exitX=0.5;exitY=0;exitDx=0;exitDy=0;entryX=0.5;entryY=1;entryDx=0;entryDy=0;dashed=1;" parent="1" source="k7s3DN2pCvagnc5NMCIo-6" target="k7s3DN2pCvagnc5NMCIo-7" edge="1">
          <mxGeometry relative="1" as="geometry" />
        </mxCell>
        <mxCell id="k7s3DN2pCvagnc5NMCIo-6" value="&lt;div&gt;Работа с&lt;/div&gt;&lt;div&gt;профилем&lt;br&gt;&lt;/div&gt;" style="ellipse;whiteSpace=wrap;html=1;" parent="1" vertex="1">
          <mxGeometry x="410" y="160" width="120" height="80" as="geometry" />
        </mxCell>
        <mxCell id="k7s3DN2pCvagnc5NMCIo-7" value="Редактирование" style="ellipse;whiteSpace=wrap;html=1;" parent="1" vertex="1">
          <mxGeometry x="370" y="30" width="120" height="80" as="geometry" />
        </mxCell>
        <mxCell id="k7s3DN2pCvagnc5NMCIo-8" value="&lt;div&gt;Смена пароля&lt;/div&gt;&lt;div&gt;и почты&lt;br&gt;&lt;/div&gt;" style="ellipse;whiteSpace=wrap;html=1;" parent="1" vertex="1">
          <mxGeometry x="520" y="360" width="120" height="80" as="geometry" />
        </mxCell>
        <mxCell id="k7s3DN2pCvagnc5NMCIo-9" value="Подтверждение почты" style="ellipse;whiteSpace=wrap;html=1;" parent="1" vertex="1">
          <mxGeometry x="540" y="20" width="120" height="80" as="geometry" />
        </mxCell>
        <mxCell id="k7s3DN2pCvagnc5NMCIo-25" style="rounded=0;orthogonalLoop=1;jettySize=auto;html=1;exitX=0;exitY=1;exitDx=0;exitDy=0;entryX=0.5;entryY=0;entryDx=0;entryDy=0;dashed=1;" parent="1" source="k7s3DN2pCvagnc5NMCIo-21" target="k7s3DN2pCvagnc5NMCIo-22" edge="1">
          <mxGeometry relative="1" as="geometry" />
        </mxCell>
        <mxCell id="k7s3DN2pCvagnc5NMCIo-26" style="rounded=0;orthogonalLoop=1;jettySize=auto;html=1;exitX=1;exitY=1;exitDx=0;exitDy=0;entryX=0.5;entryY=0;entryDx=0;entryDy=0;dashed=1;" parent="1" source="k7s3DN2pCvagnc5NMCIo-21" target="k7s3DN2pCvagnc5NMCIo-23" edge="1">
          <mxGeometry relative="1" as="geometry" />
        </mxCell>
        <mxCell id="k7s3DN2pCvagnc5NMCIo-21" value="&lt;div&gt;Социальное&lt;/div&gt;&lt;div&gt;взаимодействие&lt;br&gt;&lt;/div&gt;" style="ellipse;whiteSpace=wrap;html=1;" parent="1" vertex="1">
          <mxGeometry x="140" y="340" width="120" height="80" as="geometry" />
        </mxCell>
        <mxCell id="k7s3DN2pCvagnc5NMCIo-22" value="Реакции" style="ellipse;whiteSpace=wrap;html=1;" parent="1" vertex="1">
          <mxGeometry x="10" y="440" width="120" height="80" as="geometry" />
        </mxCell>
        <mxCell id="k7s3DN2pCvagnc5NMCIo-23" value="Подписки" style="ellipse;whiteSpace=wrap;html=1;" parent="1" vertex="1">
          <mxGeometry x="260" y="440" width="120" height="80" as="geometry" />
        </mxCell>
        <mxCell id="k7s3DN2pCvagnc5NMCIo-27" value="&amp;lt;&amp;lt;включить&amp;gt;&amp;gt;" style="text;html=1;align=center;verticalAlign=middle;whiteSpace=wrap;rounded=0;" parent="1" vertex="1">
          <mxGeometry x="110" y="219" width="60" height="30" as="geometry" />
        </mxCell>
        <mxCell id="k7s3DN2pCvagnc5NMCIo-29" value="&amp;lt;&amp;lt;включить&amp;gt;&amp;gt;" style="text;html=1;align=center;verticalAlign=middle;whiteSpace=wrap;rounded=0;" parent="1" vertex="1">
          <mxGeometry x="262" y="121" width="60" height="30" as="geometry" />
        </mxCell>
        <mxCell id="k7s3DN2pCvagnc5NMCIo-30" value="&amp;lt;&amp;lt;включить&amp;gt;&amp;gt;" style="text;html=1;align=center;verticalAlign=middle;whiteSpace=wrap;rounded=0;" parent="1" vertex="1">
          <mxGeometry x="80" y="140" width="60" height="30" as="geometry" />
        </mxCell>
        <mxCell id="k7s3DN2pCvagnc5NMCIo-31" value="&amp;lt;&amp;lt;включить&amp;gt;&amp;gt;" style="text;html=1;align=center;verticalAlign=middle;whiteSpace=wrap;rounded=0;" parent="1" vertex="1">
          <mxGeometry x="50" y="390" width="60" height="30" as="geometry" />
        </mxCell>
        <mxCell id="k7s3DN2pCvagnc5NMCIo-32" value="&amp;lt;&amp;lt;включить&amp;gt;&amp;gt;" style="text;html=1;align=center;verticalAlign=middle;whiteSpace=wrap;rounded=0;" parent="1" vertex="1">
          <mxGeometry x="280" y="390" width="60" height="30" as="geometry" />
        </mxCell>
        <mxCell id="k7s3DN2pCvagnc5NMCIo-33" value="&amp;lt;&amp;lt;включить&amp;gt;&amp;gt;" style="text;html=1;align=center;verticalAlign=middle;whiteSpace=wrap;rounded=0;" parent="1" vertex="1">
          <mxGeometry x="370" y="121" width="60" height="30" as="geometry" />
        </mxCell>
        <mxCell id="k7s3DN2pCvagnc5NMCIo-34" value="&amp;lt;&amp;lt;включить&amp;gt;&amp;gt;" style="text;html=1;align=center;verticalAlign=middle;whiteSpace=wrap;rounded=0;" parent="1" vertex="1">
          <mxGeometry x="550" y="121" width="60" height="30" as="geometry" />
        </mxCell>
        <mxCell id="k7s3DN2pCvagnc5NMCIo-35" value="&amp;lt;&amp;lt;включить&amp;gt;&amp;gt;" style="text;html=1;align=center;verticalAlign=middle;whiteSpace=wrap;rounded=0;" parent="1" vertex="1">
          <mxGeometry x="530" y="280" width="60" height="30" as="geometry" />
        </mxCell>
      </root>
    </mxGraphModel>
  </diagram>
</mxfile>
